<svg xmlns="http://www.w3.org/2000/svg" width="45.381" height="28.707"><path d="m42.205 12.17-1.176-4.701a.71.71 0 0 0 .563-.695v-.758a2.988 2.988 0 0 0-2.985-2.984h-5.352V1.469A1.47 1.47 0 0 0 31.786 0H4.5a1.47 1.47 0 0 0-1.468 1.469v12.885a.71.71 0 0 0 1.42 0V1.469c0-.027.022-.048.048-.048h27.286c.026 0 .047.021.047.048v12.885a.71.71 0 0 0 1.421 0v-.806h8.387c1.031.001 1.907.678 2.208 1.61h-2.21a.71.71 0 0 0-.71.711v1.516c0 1.228.998 2.227 2.226 2.227h.805v3.126h-1.858a4.507 4.507 0 0 0-4.253-3.032 4.507 4.507 0 0 0-4.253 3.032h-.342v-5.353a.71.71 0 0 0-1.42 0v5.353H17.09a4.507 4.507 0 0 0-4.252-3.032 4.507 4.507 0 0 0-4.253 3.032H4.5a.047.047 0 0 1-.047-.047v-1.564h3.079a.71.71 0 0 0 0-1.42H.711a.71.71 0 0 0 0 1.42h2.32v1.564c0 .81.66 1.468 1.47 1.468h3.838l-.002.048c0 2.481 2.02 4.5 4.5 4.5 2.482 0 4.5-2.019 4.5-4.5v-.048H33.35v.048c0 2.481 2.018 4.5 4.5 4.5 2.48 0 4.5-2.019 4.5-4.5l-.002-.048h2.323a.71.71 0 0 0 .71-.71v-7.58a3.748 3.748 0 0 0-3.176-3.7Zm-8.95-7.717h5.352c.862 0 1.564.701 1.564 1.563v.048h-6.916V4.453Zm0 7.674V7.485h6.314l1.16 4.642h-7.474ZM12.838 27.286a3.083 3.083 0 0 1-3.08-3.08 3.083 3.083 0 0 1 3.08-3.078 3.083 3.083 0 0 1 3.079 3.079 3.083 3.083 0 0 1-3.08 3.079Zm25.012 0a3.083 3.083 0 0 1-3.08-3.08 3.083 3.083 0 0 1 3.08-3.078 3.083 3.083 0 0 1 3.079 3.079 3.083 3.083 0 0 1-3.08 3.079Zm6.11-9.095h-.805a.806.806 0 0 1-.805-.806v-.805h1.61v1.61Z" fill="#fff" fill-rule="evenodd" data-name="Path 2696"/></svg>