<svg xmlns="http://www.w3.org/2000/svg" width="29.224" height="26" viewBox="1524.276 81 29.224 26"><path d="M1538.888 107c-.416 0-.817-.15-1.13-.425a338.711 338.711 0 0 0-3.323-2.858l-.005-.004c-2.944-2.51-5.487-4.676-7.256-6.81-1.977-2.386-2.898-4.649-2.898-7.12 0-2.402.823-4.617 2.318-6.239 1.513-1.64 3.589-2.544 5.846-2.544 1.687 0 3.232.533 4.592 1.585a9.394 9.394 0 0 1 1.856 1.938 9.395 9.395 0 0 1 1.856-1.938c1.36-1.052 2.905-1.585 4.592-1.585 2.257 0 4.333.904 5.846 2.544 1.495 1.622 2.318 3.837 2.318 6.239 0 2.471-.92 4.734-2.898 7.12-1.77 2.134-4.312 4.3-7.255 6.81a335.228 335.228 0 0 0-3.33 2.863 1.715 1.715 0 0 1-1.13.424Zm-6.448-24.288c-1.773 0-3.402.708-4.587 1.993-1.203 1.304-1.865 3.108-1.865 5.078 0 2.078.772 3.937 2.504 6.027 1.675 2.02 4.165 4.143 7.048 6.6l.005.005c1.008.859 2.151 1.833 3.34 2.872a399.573 399.573 0 0 1 3.351-2.877c2.883-2.458 5.373-4.58 7.048-6.6 1.732-2.09 2.504-3.949 2.504-6.027 0-1.97-.662-3.774-1.865-5.078-1.185-1.285-2.814-1.993-4.587-1.993-1.299 0-2.491.413-3.544 1.227-.939.726-1.593 1.644-1.976 2.286-.197.33-.544.527-.928.527s-.731-.197-.928-.527c-.383-.642-1.037-1.56-1.976-2.286-1.053-.814-2.245-1.227-3.544-1.227Zm0 0" fill="#fff" fill-rule="evenodd" data-name="heart(1)"/></svg>