<svg xmlns="http://www.w3.org/2000/svg" width="29.687" height="29.687" viewBox="1 1 29.687 29.687"><path d="M29.732 22.369c-.052-.044-5.986-4.265-7.588-4.007-.773.137-1.214.664-2.1 1.719-.142.17-.486.577-.75.867a13.557 13.557 0 0 1-8.554-8.554c.29-.266.698-.61.872-.756 1.05-.88 1.577-1.323 1.713-2.097.28-1.602-3.963-7.534-4.007-7.587A2.265 2.265 0 0 0 7.63 1C5.91 1 1 7.369 1 8.443c0 .062.09 6.4 7.905 14.348 7.94 7.806 14.277 7.896 14.34 7.896 1.072 0 7.442-4.91 7.442-6.63a2.267 2.267 0 0 0-.955-1.688Zm-6.597 6.333c-.86-.073-6.183-.775-12.833-7.307C3.738 14.713 3.054 9.38 2.986 8.553A26.772 26.772 0 0 1 7.643 3.05c.04.04.092.1.16.177a35.022 35.022 0 0 1 3.536 6c-.318.319-.653.62-1.005.9a9.928 9.928 0 0 0-1.497 1.408.99.99 0 0 0-.169.743c.21.907.53 1.785.955 2.614a15.546 15.546 0 0 0 7.173 7.171 11.27 11.27 0 0 0 2.613.956.98.98 0 0 0 .743-.17 9.97 9.97 0 0 0 1.412-1.501c.311-.37.726-.864.883-1.004a34.78 34.78 0 0 1 6.013 3.54c.082.07.14.124.179.158a26.754 26.754 0 0 1-5.504 4.658Z" fill="#fff" fill-rule="evenodd" data-name="Path 2702"/></svg>