<svg xmlns="http://www.w3.org/2000/svg" width="20.633" height="26" viewBox="1598.867 81 20.633 26"><g data-name="Layer 2"><path d="M1609.183 95.577a5.2 5.2 0 0 1-5.104-4.177.867.867 0 0 1 .866-.997.867.867 0 0 1 .867.72 3.467 3.467 0 0 0 6.786 0 .867.867 0 0 1 .867-.72.867.867 0 0 1 .866.997 5.2 5.2 0 0 1-5.148 4.177Z" fill="#fff" fill-rule="evenodd" data-name="Path 106"/><path d="M1616.897 107h-15.427a2.6 2.6 0 0 1-2.6-2.73l.702-14.941a2.6 2.6 0 0 1 2.6-2.488h14.023a2.6 2.6 0 0 1 2.6 2.488l.702 14.941a2.6 2.6 0 0 1-2.6 2.73Zm-14.725-18.417a.867.867 0 0 0-.867.867l-.702 14.907a.867.867 0 0 0 .867.91h15.427a.867.867 0 0 0 .866-.91l-.702-14.942a.867.867 0 0 0-.866-.866l-14.023.034Z" fill="#fff" fill-rule="evenodd" data-name="Path 107"/><path d="M1614.383 87.717h-1.733V86.2a3.467 3.467 0 1 0-6.933 0v1.517h-1.734V86.2a5.2 5.2 0 0 1 10.4 0v1.517Z" fill="#fff" fill-rule="evenodd" data-name="Path 108"/></g></svg>