<svg xmlns="http://www.w3.org/2000/svg" width="21.692" height="26" viewBox="1457.873 81 21.692 26"><g data-name="user(6)"><path d="M1468.554 93.524c1.721 0 3.21-.617 4.428-1.834 1.218-1.218 1.835-2.707 1.835-4.428 0-1.72-.617-3.21-1.835-4.428-1.217-1.217-2.707-1.834-4.428-1.834-1.72 0-3.21.617-4.427 1.834-1.218 1.218-1.835 2.708-1.835 4.428 0 1.72.617 3.21 1.835 4.428 1.218 1.217 2.707 1.834 4.427 1.834Zm-3.35-9.612c.934-.934 2.03-1.388 3.35-1.388 1.32 0 2.417.454 3.35 1.388.935.934 1.39 2.03 1.39 3.35 0 1.32-.455 2.416-1.39 3.35-.933.935-2.03 1.389-3.35 1.389-1.32 0-2.415-.455-3.35-1.389-.934-.934-1.388-2.03-1.388-3.35 0-1.32.454-2.416 1.388-3.35Zm0 0" fill="#fff" fill-rule="evenodd" data-name="Path 109"/><path d="M1479.512 100.993a15.468 15.468 0 0 0-.21-1.643 12.944 12.944 0 0 0-.405-1.652 8.16 8.16 0 0 0-.679-1.54 5.807 5.807 0 0 0-1.024-1.335 4.515 4.515 0 0 0-1.47-.924 5.083 5.083 0 0 0-1.878-.34c-.266 0-.522.11-1.018.432-.305.199-.662.429-1.06.683-.341.217-.802.42-1.372.605-.556.18-1.12.271-1.678.271a5.452 5.452 0 0 1-1.678-.271c-.57-.184-1.031-.387-1.371-.604-.395-.252-.752-.483-1.061-.684-.496-.323-.752-.432-1.018-.432-.676 0-1.307.114-1.877.34a4.51 4.51 0 0 0-1.471.924c-.387.37-.731.82-1.024 1.335a8.175 8.175 0 0 0-.679 1.54 12.975 12.975 0 0 0-.404 1.652 15.362 15.362 0 0 0-.21 1.643 22.25 22.25 0 0 0-.052 1.536c0 1.357.431 2.456 1.282 3.266.84.8 1.952 1.205 3.304 1.205h12.52c1.351 0 2.463-.405 3.303-1.205.851-.81 1.282-1.909 1.282-3.267 0-.523-.017-1.04-.052-1.535Zm-2.28 3.698c-.556.528-1.293.785-2.254.785h-12.52c-.96 0-1.698-.257-2.253-.785-.544-.518-.809-1.226-.809-2.162 0-.488.016-.969.048-1.43.032-.453.096-.951.19-1.48.095-.522.214-1.012.356-1.456.136-.426.322-.847.553-1.253.22-.387.473-.718.752-.986.261-.25.59-.455.979-.608.359-.142.762-.22 1.2-.232.053.029.148.083.302.183.313.204.674.437 1.073.692.45.287 1.03.546 1.722.77.708.228 1.43.345 2.147.345.717 0 1.439-.117 2.146-.345.694-.224 1.273-.483 1.723-.77.409-.261.76-.488 1.073-.692.154-.1.249-.154.302-.183.438.012.842.09 1.2.232a3 3 0 0 1 .979.608c.28.267.532.6.752.986.231.406.417.828.553 1.253.142.444.262.934.356 1.456.094.53.159 1.028.19 1.48.032.46.049.941.049 1.43 0 .937-.265 1.644-.81 2.162Zm0 0" fill="#fff" fill-rule="evenodd" data-name="Path 110"/></g></svg>